<mxfile host="app.diagrams.net" agent="Mozilla/5.0 (Windows NT 10.0; Win64; x64) AppleWebKit/537.36 (KHTML, like Gecko) Chrome/132.0.0.0 Safari/537.36" version="26.0.13">
  <diagram name="Page-1" id="90a13364-a465-7bf4-72fc-28e22215d7a0">
    <mxGraphModel dx="1050" dy="557" grid="1" gridSize="10" guides="1" tooltips="1" connect="1" arrows="1" fold="1" page="1" pageScale="1.5" pageWidth="1169" pageHeight="826" background="none" math="0" shadow="0">
      <root>
        <mxCell id="0" style=";html=1;" />
        <mxCell id="1" style=";html=1;" parent="0" />
        <mxCell id="3a17f1ce550125da-1" value="Software Control" style="whiteSpace=wrap;html=1;shadow=1;fontSize=20;fillColor=#f5f5f5;strokeColor=#666666;strokeWidth=2;dashed=1;" parent="1" vertex="1">
          <mxGeometry x="797" y="344" width="150" height="60" as="geometry" />
        </mxCell>
        <mxCell id="3a17f1ce550125da-13" style="edgeStyle=elbowEdgeStyle;rounded=0;html=1;startArrow=none;startFill=0;jettySize=auto;orthogonalLoop=1;fontSize=18;elbow=vertical;" parent="1" source="3a17f1ce550125da-2" target="3a17f1ce550125da-4" edge="1">
          <mxGeometry relative="1" as="geometry" />
        </mxCell>
        <mxCell id="3a17f1ce550125da-14" style="edgeStyle=elbowEdgeStyle;rounded=0;html=1;startArrow=none;startFill=0;jettySize=auto;orthogonalLoop=1;fontSize=18;elbow=vertical;" parent="1" source="3a17f1ce550125da-2" target="3a17f1ce550125da-5" edge="1">
          <mxGeometry relative="1" as="geometry" />
        </mxCell>
        <mxCell id="3a17f1ce550125da-15" style="edgeStyle=elbowEdgeStyle;rounded=0;html=1;startArrow=none;startFill=0;jettySize=auto;orthogonalLoop=1;fontSize=18;elbow=vertical;" parent="1" source="3a17f1ce550125da-2" target="3a17f1ce550125da-6" edge="1">
          <mxGeometry relative="1" as="geometry" />
        </mxCell>
        <mxCell id="3a17f1ce550125da-16" style="edgeStyle=elbowEdgeStyle;rounded=0;html=1;startArrow=none;startFill=0;jettySize=auto;orthogonalLoop=1;fontSize=18;elbow=vertical;" parent="1" source="3a17f1ce550125da-2" target="3a17f1ce550125da-7" edge="1">
          <mxGeometry relative="1" as="geometry" />
        </mxCell>
        <mxCell id="3a17f1ce550125da-17" style="edgeStyle=elbowEdgeStyle;rounded=0;html=1;startArrow=none;startFill=0;jettySize=auto;orthogonalLoop=1;fontSize=18;" parent="1" source="3a17f1ce550125da-10" target="3a17f1ce550125da-2" edge="1">
          <mxGeometry relative="1" as="geometry">
            <Array as="points">
              <mxPoint x="907" y="754" />
            </Array>
          </mxGeometry>
        </mxCell>
        <mxCell id="3a17f1ce550125da-2" value="Custom switch Matrix&lt;div&gt;&lt;br&gt;&lt;/div&gt;&lt;div&gt;(switches, couplers, mixer, amps, attenu, splitters)&lt;/div&gt;" style="whiteSpace=wrap;html=1;shadow=1;fontSize=18;fillColor=#f5f5f5;strokeColor=#666666;" parent="1" vertex="1">
          <mxGeometry x="787" y="454" width="170" height="280" as="geometry" />
        </mxCell>
        <mxCell id="3a17f1ce550125da-4" value="Spectrum Analyzer" style="whiteSpace=wrap;html=1;shadow=1;fontSize=18;fillColor=#f5f5f5;strokeColor=#666666;" parent="1" vertex="1">
          <mxGeometry x="1037" y="444" width="120" height="60" as="geometry" />
        </mxCell>
        <mxCell id="3a17f1ce550125da-5" value="Network Analyzer" style="whiteSpace=wrap;html=1;shadow=1;fontSize=18;fillColor=#f5f5f5;strokeColor=#666666;" parent="1" vertex="1">
          <mxGeometry x="1037" y="524" width="120" height="60" as="geometry" />
        </mxCell>
        <mxCell id="3a17f1ce550125da-6" value="Power Meter" style="whiteSpace=wrap;html=1;shadow=1;fontSize=18;fillColor=#f5f5f5;strokeColor=#666666;" parent="1" vertex="1">
          <mxGeometry x="1037" y="604" width="120" height="60" as="geometry" />
        </mxCell>
        <mxCell id="3a17f1ce550125da-7" value="Freq. Count" style="whiteSpace=wrap;html=1;shadow=1;fontSize=18;fillColor=#f5f5f5;strokeColor=#666666;" parent="1" vertex="1">
          <mxGeometry x="1037" y="684" width="120" height="60" as="geometry" />
        </mxCell>
        <mxCell id="3a17f1ce550125da-20" style="edgeStyle=elbowEdgeStyle;rounded=0;html=1;startArrow=none;startFill=0;jettySize=auto;orthogonalLoop=1;fontSize=18;elbow=vertical;" parent="1" source="3a17f1ce550125da-8" target="3a17f1ce550125da-2" edge="1">
          <mxGeometry relative="1" as="geometry">
            <Array as="points">
              <mxPoint x="757" y="514" />
            </Array>
          </mxGeometry>
        </mxCell>
        <mxCell id="3a17f1ce550125da-8" value="Vector Signal Generator" style="whiteSpace=wrap;html=1;shadow=1;fontSize=18;fillColor=#f5f5f5;strokeColor=#666666;" parent="1" vertex="1">
          <mxGeometry x="597" y="444" width="120" height="150" as="geometry" />
        </mxCell>
        <mxCell id="3a17f1ce550125da-21" style="edgeStyle=elbowEdgeStyle;rounded=0;html=1;startArrow=none;startFill=0;jettySize=auto;orthogonalLoop=1;fontSize=18;elbow=vertical;" parent="1" source="3a17f1ce550125da-9" target="3a17f1ce550125da-2" edge="1">
          <mxGeometry relative="1" as="geometry" />
        </mxCell>
        <mxCell id="3a17f1ce550125da-9" value="ARB / Mod Source" style="whiteSpace=wrap;html=1;shadow=1;fontSize=18;fillColor=#f5f5f5;strokeColor=#666666;" parent="1" vertex="1">
          <mxGeometry x="597" y="634" width="120" height="60" as="geometry" />
        </mxCell>
        <mxCell id="3a17f1ce550125da-10" value="DUT" style="whiteSpace=wrap;html=1;shadow=1;fontSize=18;fillColor=#f5f5f5;strokeColor=#666666;" parent="1" vertex="1">
          <mxGeometry x="799.5" y="774" width="145" height="120" as="geometry" />
        </mxCell>
        <mxCell id="3a17f1ce550125da-18" style="edgeStyle=elbowEdgeStyle;rounded=0;html=1;startArrow=none;startFill=0;jettySize=auto;orthogonalLoop=1;fontSize=18;elbow=vertical;" parent="1" source="3a17f1ce550125da-11" target="3a17f1ce550125da-10" edge="1">
          <mxGeometry relative="1" as="geometry" />
        </mxCell>
        <mxCell id="3a17f1ce550125da-11" value="DC Power Supplies" style="whiteSpace=wrap;html=1;shadow=1;fontSize=18;fillColor=#f5f5f5;strokeColor=#666666;" parent="1" vertex="1">
          <mxGeometry x="597" y="804" width="120" height="60" as="geometry" />
        </mxCell>
        <mxCell id="3a17f1ce550125da-22" style="edgeStyle=elbowEdgeStyle;rounded=0;html=1;startArrow=none;startFill=0;jettySize=auto;orthogonalLoop=1;fontSize=18;" parent="1" source="3a17f1ce550125da-10" target="3a17f1ce550125da-2" edge="1">
          <mxGeometry relative="1" as="geometry">
            <mxPoint x="937" y="784" as="sourcePoint" />
            <mxPoint x="937" y="744" as="targetPoint" />
            <Array as="points">
              <mxPoint x="927" y="754" />
              <mxPoint x="907" y="754" />
            </Array>
          </mxGeometry>
        </mxCell>
        <mxCell id="3a17f1ce550125da-23" style="edgeStyle=elbowEdgeStyle;rounded=0;html=1;startArrow=none;startFill=0;jettySize=auto;orthogonalLoop=1;fontSize=18;" parent="1" edge="1">
          <mxGeometry relative="1" as="geometry">
            <mxPoint x="887" y="774" as="sourcePoint" />
            <mxPoint x="887" y="734" as="targetPoint" />
            <Array as="points">
              <mxPoint x="887" y="754" />
              <mxPoint x="887" y="754" />
            </Array>
          </mxGeometry>
        </mxCell>
        <mxCell id="3a17f1ce550125da-24" style="edgeStyle=elbowEdgeStyle;rounded=0;html=1;startArrow=none;startFill=0;jettySize=auto;orthogonalLoop=1;fontSize=18;" parent="1" edge="1">
          <mxGeometry relative="1" as="geometry">
            <mxPoint x="857" y="734" as="sourcePoint" />
            <mxPoint x="857" y="774" as="targetPoint" />
            <Array as="points">
              <mxPoint x="857" y="754" />
              <mxPoint x="887" y="764" />
            </Array>
          </mxGeometry>
        </mxCell>
        <mxCell id="3a17f1ce550125da-25" style="edgeStyle=elbowEdgeStyle;rounded=0;html=1;startArrow=none;startFill=0;jettySize=auto;orthogonalLoop=1;fontSize=18;" parent="1" edge="1">
          <mxGeometry relative="1" as="geometry">
            <mxPoint x="837" y="734" as="sourcePoint" />
            <mxPoint x="837" y="774" as="targetPoint" />
            <Array as="points">
              <mxPoint x="837" y="754" />
              <mxPoint x="867" y="764" />
            </Array>
          </mxGeometry>
        </mxCell>
        <mxCell id="3a17f1ce550125da-26" style="edgeStyle=elbowEdgeStyle;rounded=0;html=1;startArrow=none;startFill=0;jettySize=auto;orthogonalLoop=1;fontSize=18;" parent="1" edge="1">
          <mxGeometry relative="1" as="geometry">
            <mxPoint x="817" y="734" as="sourcePoint" />
            <mxPoint x="817" y="774" as="targetPoint" />
            <Array as="points">
              <mxPoint x="817" y="754" />
              <mxPoint x="847" y="764" />
            </Array>
          </mxGeometry>
        </mxCell>
        <mxCell id="AsYeykMKRLF6SeqOeggs-1" value="{&#xa;  &quot;diagram&quot;: {&#xa;    &quot;name&quot;: &quot;Архитектура майнинг пула&quot;,&#xa;    &quot;description&quot;: &quot;Схема взаимодействия компонентов архитектуры майнинг пула&quot;,&#xa;    &quot;elements&quot;: [&#xa;      {&#xa;        &quot;id&quot;: &quot;clients&quot;,&#xa;        &quot;type&quot;: &quot;group&quot;,&#xa;        &quot;label&quot;: &quot;Клиенты (Майнеры)&quot;,&#xa;        &quot;elements&quot;: [&#xa;          {&#xa;            &quot;id&quot;: &quot;miner1&quot;,&#xa;            &quot;type&quot;: &quot;component&quot;,&#xa;            &quot;label&quot;: &quot;Майнер 1&quot;&#xa;          },&#xa;          {&#xa;            &quot;id&quot;: &quot;miner2&quot;,&#xa;            &quot;type&quot;: &quot;component&quot;,&#xa;            &quot;label&quot;: &quot;Майнер 2&quot;&#xa;          },&#xa;          {&#xa;            &quot;id&quot;: &quot;minerN&quot;,&#xa;            &quot;type&quot;: &quot;component&quot;,&#xa;            &quot;label&quot;: &quot;Майнер N&quot;&#xa;          }&#xa;        ]&#xa;      },&#xa;      {&#xa;        &quot;id&quot;: &quot;loadbalancer&quot;,&#xa;        &quot;type&quot;: &quot;component&quot;,&#xa;        &quot;label&quot;: &quot;Hetzner Load Balancer&quot;&#xa;      },&#xa;      {&#xa;        &quot;id&quot;: &quot;kubernetes&quot;,&#xa;        &quot;type&quot;: &quot;group&quot;,&#xa;        &quot;label&quot;: &quot;Kubernetes Cluster&quot;,&#xa;        &quot;elements&quot;: [&#xa;          {&#xa;            &quot;id&quot;: &quot;controlplane&quot;,&#xa;            &quot;type&quot;: &quot;component&quot;,&#xa;            &quot;label&quot;: &quot;Control Plane&quot;&#xa;          },&#xa;          {&#xa;            &quot;id&quot;: &quot;workernodes&quot;,&#xa;            &quot;type&quot;: &quot;group&quot;,&#xa;            &quot;label&quot;: &quot;Worker Nodes&quot;,&#xa;            &quot;elements&quot;: [&#xa;              {&#xa;                &quot;id&quot;: &quot;worker1&quot;,&#xa;                &quot;type&quot;: &quot;component&quot;,&#xa;                &quot;label&quot;: &quot;Worker 1&quot;&#xa;              },&#xa;              {&#xa;                &quot;id&quot;: &quot;worker2&quot;,&#xa;                &quot;type&quot;: &quot;component&quot;,&#xa;                &quot;label&quot;: &quot;Worker 2&quot;&#xa;              },&#xa;              {&#xa;                &quot;id&quot;: &quot;workerN&quot;,&#xa;                &quot;type&quot;: &quot;component&quot;,&#xa;                &quot;label&quot;: &quot;Worker N&quot;&#xa;              }&#xa;            ]&#xa;          },&#xa;          {&#xa;            &quot;id&quot;: &quot;services&quot;,&#xa;            &quot;type&quot;: &quot;group&quot;,&#xa;            &quot;label&quot;: &quot;Сервисы&quot;,&#xa;            &quot;elements&quot;: [&#xa;              {&#xa;                &quot;id&quot;: &quot;redis&quot;,&#xa;                &quot;type&quot;: &quot;component&quot;,&#xa;                &quot;label&quot;: &quot;Redis Clusters&quot;&#xa;              },&#xa;              {&#xa;                &quot;id&quot;: &quot;keda&quot;,&#xa;                &quot;type&quot;: &quot;component&quot;,&#xa;                &quot;label&quot;: &quot;KEDA&quot;&#xa;              },&#xa;              {&#xa;                &quot;id&quot;: &quot;traefik&quot;,&#xa;                &quot;type&quot;: &quot;component&quot;,&#xa;                &quot;label&quot;: &quot;Traefik Ingress&quot;&#xa;              },&#xa;              {&#xa;                &quot;id&quot;: &quot;certmanager&quot;,&#xa;                &quot;type&quot;: &quot;component&quot;,&#xa;                &quot;label&quot;: &quot;Cert-manager&quot;&#xa;              },&#xa;              {&#xa;                &quot;id&quot;: &quot;grafana&quot;,&#xa;                &quot;type&quot;: &quot;component&quot;,&#xa;                &quot;label&quot;: &quot;Grafana&quot;&#xa;              },&#xa;              {&#xa;                &quot;id&quot;: &quot;celerymaster&quot;,&#xa;                &quot;type&quot;: &quot;component&quot;,&#xa;                &quot;label&quot;: &quot;Celery Master&quot;&#xa;              },&#xa;              {&#xa;                &quot;id&quot;: &quot;celeryworkers&quot;,&#xa;                &quot;type&quot;: &quot;component&quot;,&#xa;                &quot;label&quot;: &quot;Celery Workers&quot;&#xa;              }&#xa;            ]&#xa;          }&#xa;        ]&#xa;      }&#xa;    ],&#xa;    &quot;connections&quot;: [&#xa;      {&#xa;        &quot;from&quot;: &quot;clients&quot;,&#xa;        &quot;to&quot;: &quot;loadbalancer&quot;,&#xa;        &quot;label&quot;: &quot;Запросы майнеров&quot;&#xa;      },&#xa;      {&#xa;        &quot;from&quot;: &quot;loadbalancer&quot;,&#xa;        &quot;to&quot;: &quot;kubernetes&quot;,&#xa;        &quot;label&quot;: &quot;Балансировка нагрузки&quot;&#xa;      },&#xa;      {&#xa;        &quot;from&quot;: &quot;kubernetes&quot;,&#xa;        &quot;to&quot;: &quot;redis&quot;,&#xa;        &quot;label&quot;: &quot;Доступ к данным&quot;&#xa;      },&#xa;      {&#xa;        &quot;from&quot;: &quot;kubernetes&quot;,&#xa;        &quot;to&quot;: &quot;grafana&quot;,&#xa;        &quot;label&quot;: &quot;Мониторинг&quot;&#xa;      },&#xa;      {&#xa;        &quot;from&quot;: &quot;kubernetes&quot;,&#xa;        &quot;to&quot;: &quot;celerymaster&quot;,&#xa;        &quot;label&quot;: &quot;Задачи Celery&quot;&#xa;      }&#xa;    ]&#xa;  }&#xa;}" style="text;whiteSpace=wrap;html=1;" vertex="1" parent="1">
          <mxGeometry x="630" y="940" width="480" height="2010" as="geometry" />
        </mxCell>
      </root>
    </mxGraphModel>
  </diagram>
</mxfile>
